<svg xmlns="http://www.w3.org/2000/svg" width="16.68" height="16.68" viewBox="0 0 16.68 16.68">
  <path id="Dribbble-icon" d="M19.146,33.754a8.3,8.3,0,0,1-4.815-1.53,14.3,14.3,0,0,1,.882-1.53A12.086,12.086,0,0,1,16.5,29.064a8.547,8.547,0,0,1,3.945-2.449A34.984,34.984,0,0,1,22.135,33.2,8.3,8.3,0,0,1,19.146,33.754Zm4.341-1.217h0a27.655,27.655,0,0,0-1.618-6.218,11.577,11.577,0,0,1,1.731-.135,9.577,9.577,0,0,1,2.2.248,7.933,7.933,0,0,1,1.542.532,8.3,8.3,0,0,1-1.352,3.218,8.384,8.384,0,0,1-2.5,2.355Zm-10.28-1.268h0a8.35,8.35,0,0,1-1.757-2.636,8.289,8.289,0,0,1-.644-3.218c0-.083,0-.167,0-.251.457.044.952.066,1.472.066a22.328,22.328,0,0,0,2.817-.19,30.835,30.835,0,0,0,3.8-.746c.148-.039.3-.08.445-.123.223.421.425.833.6,1.226l-.121.034A10.985,10.985,0,0,0,13.207,31.269Zm14.268-5.43h0a10.77,10.77,0,0,0-1.847-.6,11.2,11.2,0,0,0-2.5-.281,11.708,11.708,0,0,0-1.776.137c-.126-.281-.26-.565-.4-.844-.089-.181-.181-.364-.273-.543a11.979,11.979,0,0,0,3.059-1.781,10.2,10.2,0,0,0,1.8-1.868,8.307,8.307,0,0,1,1.947,5.356c0,.141,0,.284-.011.425Zm-15.15-1.83h0c-.479,0-.948-.015-1.393-.045a8.3,8.3,0,0,1,1.488-3.481,8.38,8.38,0,0,1,2.822-2.44,46.285,46.285,0,0,1,3.524,5.087l-.254.07a24.579,24.579,0,0,1-3.433.647A24.041,24.041,0,0,1,12.325,24.008Zm7.793-1.359h0c-.545-.976-1.152-1.959-1.8-2.919-.527-.777-1.086-1.543-1.662-2.277A8.33,8.33,0,0,1,24.7,19.188a12.157,12.157,0,0,1-1.753,1.75,11.838,11.838,0,0,1-2.825,1.71Z" transform="translate(-10.806 -17.074)" fill="#fff"/>
</svg>
