<svg xmlns="http://www.w3.org/2000/svg" width="141.744" height="140.654">
  <defs>
    <style>
      .b{fill:#333}
    </style>
  </defs>
  <text transform="rotate(-29 201.372 -110.779)" font-size="48" font-family="DINCondensed-Bold,DIN Condensed" font-weight="700" fill="#333">
    <tspan x="-39.552" y="0">LOGO</tspan>
  </text>
  <path class="b" d="M8.607 93.245a2.509 2.509 0 0 1-1.083.095 2.067 2.067 0 0 1-.946-.298 2.171 2.171 0 0 1-.742-.6 1.709 1.709 0 0 1-.393-.714 2.888 2.888 0 0 1-.118-.922 3.055 3.055 0 0 1 .205-.876c.277-.208.483-.507.668-.646a3.19 3.19 0 0 1 .897-.533l.437-.185.464 1.382-.432.19a.974.974 0 0 0-.644.486 1.15 1.15 0 0 0-.022.737.735.735 0 0 0 .416.552 1.15 1.15 0 0 0 .737.022l4.998-1.601a.974.974 0 0 0 .645-.486 1.15 1.15 0 0 0 .021-.738.735.735 0 0 0-.416-.551 1.15 1.15 0 0 0-.737-.022l-1.73.578.28.945-1.198.325-.812-2.418 2.925-.906a2.509 2.509 0 0 1 1.083-.095 2.067 2.067 0 0 1 .945.298 2.171 2.171 0 0 1 .739.598 1.709 1.709 0 0 1 .394.714 2.888 2.888 0 0 1 .117.921 3.055 3.055 0 0 1-.205.876 2.171 2.171 0 0 1-.598.739 3.191 3.191 0 0 1-.897.532zM5.725 82.72a5.012 5.012 0 0 1-1.062-.069 2.888 2.888 0 0 1-.854-.367 1.272 1.272 0 0 1-.554-.736 1.665 1.665 0 0 1-.302-.783 3.055 3.055 0 0 1 .044-.898 1.857 1.857 0 0 1 .367-.854 2.246 2.246 0 0 1 .667-.647 1.859 1.859 0 0 1 1.036-.348l5.138-.84a2.5 2.5 0 0 1 1.06.065 1.245 1.245 0 0 1 .762.437 1.272 1.272 0 0 1 .555.736 1.666 1.666 0 0 1 .302.783 3.055 3.055 0 0 1-.044.898 1.857 1.857 0 0 1-.367.854 2.537 2.537 0 0 1-.668.647 1.859 1.859 0 0 1-1.036.348zm4.926-2.27c.346-.116.599-.163.714-.393a1.15 1.15 0 0 0 .183-.715 1.462 1.462 0 0 0-.324-.621c-.139-.184-.461-.23-.807-.114l-5.137.841c-.346.117-.599.163-.714.394a1.15 1.15 0 0 0-.182.715 1.462 1.462 0 0 0 .324.621c.138.184.46.23.806.113zM9.977 67.108a3.055 3.055 0 0 1 .876.205 2.136 2.136 0 0 1 .669.506l.555.736a5.618 5.618 0 0 1 .21.853 3.055 3.055 0 0 1-.206.876 2.136 2.136 0 0 1-.506.67l-.735.553a1.857 1.857 0 0 1-.922.117l-7.63-.168.042-1.475 7.47.146a.764.764 0 0 0 .783-.302.634.634 0 0 0 .252-.623 1.638 1.638 0 0 0-.232-.69c-.139-.184-.461-.23-.784-.275l-7.468-.144.045-1.477zM2.957 60.282l.386-2.169c.32-1.683 1.47-2.262 3.312-1.919a3.892 3.892 0 0 1 1.408.527 2.809 2.809 0 0 1 .832 1.105l4.697-.66-.296 1.522-4.352.538-.114.807 4.173.75-.273 1.361zm4.605-.59l.114-.807a.617.617 0 0 0-.001-.577.351.351 0 0 0-.278-.368.874.874 0 0 0-.461-.23c-.161-.022-.392-.138-.646-.09-.23-.115-.484-.068-.645-.091a.874.874 0 0 0-.507.094l-.368.277a2.519 2.519 0 0 1-.252.623l-.182.715zM5.603 49.049l.504-1.246 5.486.195-4.273-3.563.504-1.245 9.228 3.439-.434 1.338-5.629-2.107 3.464 2.873-.252.623-4.495-.22 5.629 2.107-.435 1.337zM10.83 37.03l2.158-3.647 1.132.736-1.404 2.35 2.521 1.424 1.282-2.12 1.132.733-1.282 2.12 2.515 1.424 1.4-2.354 1.223.666-2.163 3.651zM18.208 28.44l-1.08 1.247-1.04-.805 2.897-3.624 1.039.804-1.08 1.247 6.651 5.38-.896 1.11zM29.012 15.97l3.475-2.475.833 1.106-2.207 1.664 1.732 2.3 1.933-1.457.832 1.104-1.932 1.457 1.734 2.3 2.209-1.664.832 1.104-3.385 2.406zM41.176 13.729l-3.81-3.333 1.336-.72 2.333 2.139-.307-3.087 1.336-.72.356 5.073 4.178 3.63-1.337.72-2.632-2.345.495 3.523-1.336.72zM47.726 5.763l1.98-.626a2.316 2.316 0 0 1 1.013-.187 2.067 2.067 0 0 1 .946.298 3.365 3.365 0 0 1 .808.69 3.984 3.984 0 0 1 .556 1.312 2.171 2.171 0 0 1 .256 1.106 3.055 3.055 0 0 1-.044.898 2.316 2.316 0 0 1-.46.923 2.491 2.491 0 0 1-1.081.672l-.853.209 1.207 3.708-1.38.463zm2.73 4.004l.69-.232a1.462 1.462 0 0 0 .62-.324.6.6 0 0 0 .23-.461 1.591 1.591 0 0 0-.002-.576c-.046-.253-.116-.346-.163-.599s-.185-.437-.163-.598c-.138-.184-.116-.346-.254-.53a.874.874 0 0 0-.464-.234 2.519 2.519 0 0 0-.668.07l-.69.233zM58.252 2.882l4.127-.656.233 1.266-2.699.447.422 2.857 2.441-.397.233 1.266-2.441.398.42 2.857 2.697-.444.21 1.426-4.123.657zM68.782 1.729l2.305-.005c1.637.065 2.489 1.004 2.47 2.896a3.269 3.269 0 0 1-.295 1.521 1.787 1.787 0 0 1-.966 1.016l1.506 4.492-1.475-.043-1.298-4.215-.83.047-.013 4.195-1.404.052zm1.437 4.4l.83-.048c.253-.046.415-.024.598-.163l.368-.277c.092-.07.115-.23.23-.461.023-.161-.024-.415.09-.646-.046-.253-.024-.415-.07-.668a.693.693 0 0 0-.185-.438.693.693 0 0 0-.37-.299c-.16-.022-.391-.138-.645-.09l-.737-.022zM79.891 2.303l1.453.204-1.453 9.752-1.452-.204zM87.824 3.828l4.035 1.143-.342 1.269-2.698-.708-.797 2.765 2.377.662-.342 1.269-2.377-.662-.796 2.765 2.698.708-.435 1.337-4.045-1.139zM97.719 7.194l1.153.573-.632 6.247 2.569-5.398 1.315.596-4.221 8.952-1.153-.573.561-6.34-2.477 5.33-1.313-.597zM107.48 21.481a2.246 2.246 0 0 1-.667.647 1.665 1.665 0 0 1-.783.302c-.253.047-.577.001-.83.048a1.857 1.857 0 0 1-.853-.367 2.881 2.881 0 0 1-.971-1.288 2.411 2.411 0 0 1-.048-.83 2.228 2.228 0 0 1 .482-1.084l3.099-4.5a2.537 2.537 0 0 1 .667-.647 1.665 1.665 0 0 1 .783-.302 3.055 3.055 0 0 1 .898.045 1.857 1.857 0 0 1 .854.367 2.537 2.537 0 0 1 .647.667 1.666 1.666 0 0 1 .302.783 3.055 3.055 0 0 1-.045.898 2.888 2.888 0 0 1-.367.854l-.321.53-1.2-.827.298-.369a1.15 1.15 0 0 0 .183-.715 1.462 1.462 0 0 0-.324-.62c-.3-.208-.53-.323-.807-.114a1.961 1.961 0 0 0-.575.577l-2.803 4.132a1.15 1.15 0 0 0-.182.715 1.462 1.462 0 0 0 .324.62.4.4 0 0 0 .23.115l.322.046a.423.423 0 0 0 .345-.117.693.693 0 0 0 .3-.369l.298-.37 1.2.828zM116.829 19.342l3.048 2.897-.874.947-2.033-1.932-2.023 2.102 1.732 1.725-.874.947-1.733-1.725-2.023 2.102 2.033 1.932-.966 1.016-3.047-2.897zM14.646 102.403a1.857 1.857 0 0 1 .922-.118 3.055 3.055 0 0 1 .876.206 2.136 2.136 0 0 1 .67.506 2.537 2.537 0 0 1 .462.805 1.857 1.857 0 0 1 .118.922 3.055 3.055 0 0 1-.205.876 2.136 2.136 0 0 1-.506.67 2.537 2.537 0 0 1-.806.462 1.857 1.857 0 0 1-.922.118 3.055 3.055 0 0 1-.876-.205 2.136 2.136 0 0 1-.67-.506 2.537 2.537 0 0 1-.462-.806 1.857 1.857 0 0 1-.118-.922 3.055 3.055 0 0 1 .206-.876 2.136 2.136 0 0 1 .506-.67 2.864 2.864 0 0 1 .805-.462zM125 33.817a1.857 1.857 0 0 1 .923-.117 3.055 3.055 0 0 1 .875.205 2.136 2.136 0 0 1 .67.506 2.537 2.537 0 0 1 .463.805 1.857 1.857 0 0 1 .117.922 3.056 3.056 0 0 1-.205.876 2.137 2.137 0 0 1-.506.67 2.537 2.537 0 0 1-.805.463 1.857 1.857 0 0 1-.922.117 3.055 3.055 0 0 1-.876-.205 2.136 2.136 0 0 1-.67-.506 2.537 2.537 0 0 1-.463-.806 1.857 1.857 0 0 1-.117-.922 3.055 3.055 0 0 1 .205-.876 2.136 2.136 0 0 1 .506-.669 2.864 2.864 0 0 1 .806-.463z"/>
  <g>
    <path class="b" d="M132.842 46.522a2.509 2.509 0 0 1 1.083-.094 2.067 2.067 0 0 1 .946.297 2.136 2.136 0 0 1 .669.507 1.709 1.709 0 0 1 .394.713 2.888 2.888 0 0 1 .117.922 3.055 3.055 0 0 1-.205.876 2.171 2.171 0 0 1-.598.739 3.19 3.19 0 0 1-.897.532l-.438.185-.464-1.381.438-.186a.974.974 0 0 0 .644-.486 1.151 1.151 0 0 0 .022-.737.735.735 0 0 0-.416-.552 1.15 1.15 0 0 0-.738-.022l-4.928 1.694a.974.974 0 0 0-.644.486 1.15 1.15 0 0 0-.022.737.735.735 0 0 0 .416.552 1.15 1.15 0 0 0 .738.022l1.727-.58-.348-1.037 1.129-.417.812 2.418-2.951 1.07a2.509 2.509 0 0 1-1.083.094 2.067 2.067 0 0 1-.946-.298 2.137 2.137 0 0 1-.67-.506 1.709 1.709 0 0 1-.393-.714 2.888 2.888 0 0 1-.118-.921 3.055 3.055 0 0 1 .206-.876 2.171 2.171 0 0 1 .598-.739 3.19 3.19 0 0 1 .897-.532zM135.883 57.073a5.012 5.012 0 0 1 1.06.066 2.888 2.888 0 0 1 .854.367 1.272 1.272 0 0 1 .555.737 1.665 1.665 0 0 1 .302.783 3.055 3.055 0 0 1-.044.898 1.857 1.857 0 0 1-.367.854 2.246 2.246 0 0 1-.668.647 1.859 1.859 0 0 1-1.036.347l-5.137.841a2.5 2.5 0 0 1-1.06-.066 2.888 2.888 0 0 1-.854-.367 1.272 1.272 0 0 1-.555-.736 1.665 1.665 0 0 1-.302-.783 3.055 3.055 0 0 1 .044-.899 1.857 1.857 0 0 1 .367-.853 2.246 2.246 0 0 1 .667-.647 1.859 1.859 0 0 1 1.036-.348zm-4.926 2.27c-.346.116-.599.163-.714.393a1.15 1.15 0 0 0-.183.715 1.462 1.462 0 0 0 .324.621c.139.184.462.23.807.114l5.137-.841c.346-.117.599-.163.714-.394a1.15 1.15 0 0 0 .183-.715 1.462 1.462 0 0 0-.324-.621c-.139-.184-.461-.23-.807-.113zM131.885 72.638a3.055 3.055 0 0 1-.876-.205 2.136 2.136 0 0 1-.67-.506l-.554-.737a5.617 5.617 0 0 1-.21-.852 1.694 1.694 0 0 1 .206-.876 2.136 2.136 0 0 1 .506-.67l.736-.554a5.617 5.617 0 0 1 .853-.21l7.651.006.049 1.406-7.49.017a.764.764 0 0 0-.783.302.634.634 0 0 0-.252.623 1.638 1.638 0 0 0 .232.69c.139.184.461.23.784.274l7.421-.109.049 1.406zM138.929 79.306l-.317 2.258q-.34 2.422-3.244 2.011a3.892 3.892 0 0 1-1.407-.527 2.809 2.809 0 0 1-.832-1.104l-4.632.75.204-1.452 4.352-.539.113-.806-4.173-.751.274-1.36zm-4.538.678l-.114.807a.618.618 0 0 0 .001.577.351.351 0 0 0 .278.368.874.874 0 0 0 .461.23c.161.022.392.137.646.09.23.115.484.068.645.09a.874.874 0 0 0 .507-.093l.368-.277c.023-.161.138-.392.16-.554l.183-.715zM136.442 90.558l-.504 1.245-5.509-.034 4.295 3.4-.505 1.246-9.32-3.37.434-1.337 5.629 2.107-3.486-2.712.251-.623 4.426.129-5.629-2.107.435-1.338zM131.351 102.76l-2.158 3.646-1.223-.666 1.335-2.44-2.515-1.423-1.193 2.053-1.226-.668 1.193-2.054-2.515-1.423-1.331 2.446-1.222-.666 2.158-3.646zM124.136 111.375l1.01-1.34 1.04.805-2.896 3.625-1.039-.805 1.01-1.338-6.743-5.312.897-1.108zM113.54 124.121l-3.312 2.496-.833-1.104 2.21-1.665-1.735-2.3-1.932 1.456-.833-1.105 1.933-1.456-1.734-2.301-2.209 1.665-.831-1.104 3.312-2.496zM101.446 126.453l3.81 3.333-1.336.72-2.265-2.05.466 3.112-1.336.719-.519-5.092-4.171-3.635 1.336-.719 2.632 2.345-.56-3.618 1.336-.719zM95.035 134.603l-1.98.627a2.316 2.316 0 0 1-1.014.186 2.067 2.067 0 0 1-.946-.298 3.365 3.365 0 0 1-.808-.69 3.984 3.984 0 0 1-.556-1.312 2.171 2.171 0 0 1-.256-1.106 3.055 3.055 0 0 1 .045-.898 1.423 1.423 0 0 1 .458-.923 2.491 2.491 0 0 1 1.082-.671l.69-.233-1.298-3.637 1.382-.465zm-2.89-4.027l-.69.232a1.462 1.462 0 0 0-.622.324.815.815 0 0 0-.136.968 4.806 4.806 0 0 0 .233.69c.046.253.185.438.162.599.139.183.117.345.347.46s.3.207.461.23a2.519 2.519 0 0 0 .669-.07l.69-.233zM84.416 137.553l-4.123.657-.233-1.267 2.788-.513-.513-2.788-2.442.398-.233-1.267 2.441-.397-.513-2.788-2.787.513-.212-1.43 4.124-.654zM74.025 138.891l-2.305.005c-1.728.004-2.489-1.004-2.563-2.826a4.4 4.4 0 0 1 .204-1.453 1.787 1.787 0 0 1 .966-1.016l-1.602-4.423 1.475.043 1.393 4.144.83-.048.012-4.194 1.406-.049zm-1.437-4.4l-.83.048c-.252.046-.414.024-.598.163l-.368.277c-.023.161-.115.23-.16.554-.023.161.024.415-.09.646.046.252.024.414.07.668a.979.979 0 0 0 .554.736c.161.023.392.138.646.09l.76-.139zM62.824 138.387l-1.452-.205 1.291-9.774 1.453.204zM54.938 137.114l-4.036-1.143.343-1.269 2.698.708.797-2.765-2.377-.662.342-1.269 2.377.662.796-2.765-2.698-.708.365-1.43 4.036 1.144zM44.952 133.818l-1.245-.504.469-6.27-2.408 5.422-1.314-.596 4.059-8.975 1.245.504-.47 6.27 2.41-5.418 1.315.597zM35.08 119.758a1.3 1.3 0 0 1 .667-.646 7.344 7.344 0 0 1 .783-.302c.253-.047.576-.001.829-.048a1.857 1.857 0 0 1 .854.367 2.881 2.881 0 0 1 .97 1.288 6.61 6.61 0 0 1 .118.922 1.551 1.551 0 0 1-.482 1.084l-2.937 4.522a2.537 2.537 0 0 1-.667.646 1.665 1.665 0 0 1-.783.302 3.055 3.055 0 0 1-.899-.044 1.857 1.857 0 0 1-.853-.367 2.537 2.537 0 0 1-.647-.667 1.665 1.665 0 0 1-.302-.783 2.067 2.067 0 0 1-.026-.991 1.857 1.857 0 0 1 .367-.854l.322-.53 1.196.828-.299.369a2.514 2.514 0 0 0-.183.715c-.019.162.19.438.328.622a.947.947 0 0 0 .806.113 1.961 1.961 0 0 0 .576-.577l2.803-4.132a1.15 1.15 0 0 0 .182-.715.735.735 0 0 0-.416-.552.4.4 0 0 0-.23-.114l-.322-.045a.423.423 0 0 0-.346.116.693.693 0 0 0-.299.37l-.299.369-1.2-.827zM25.796 121.992l-3.14-2.827.874-.947 2.033 1.932 1.95-2.197-1.824-1.655.874-.947 1.825 1.655 1.958-2.189-2.033-1.936.964-1.014 3.14 2.827z"/>
  </g>
</svg>